<svg id="flat" viewBox="0 0 512 512" xmlns="http://www.w3.org/2000/svg"><path d="m416 335.13v152.87h-320v-152.87a64.00176 64.00176 0 0 1 27.54-52.6l28.46-19.72 23.27-16.13 32.73-22.68h96l32.73 22.68 23.27 16.13006 28.46 19.72a64.00176 64.00176 0 0 1 27.54 52.59994z" fill="#548aff"/><g fill="#7dafff"><path d="m216 224v68.68l-64 11.32v-41.19l23.27-16.13 32.73-22.68z"/><path d="m360 262.81v41.19l-64-11.32v-68.68h8l32.73 22.68z"/><path d="m256 242.979-96 93.021 96 112 96-112z"/></g><path d="m336.73 246.68-80.73 145.32-80.73-145.32 32.73-22.68h96z" fill="#e0edff"/><path d="m232 240v16l8 32-7.673 61.388 23.673 42.612 23.673-42.612-7.673-61.388 8-32v-16z" fill="#ef5e3b"/><path d="m272 296h-32a8 8 0 0 1 0-16h32a8 8 0 0 1 0 16z" fill="#d14521"/><path d="m296 72v-24a24 24 0 0 0 -24-24h-32a56 56 0 0 0 -56 56v16h72a19.31369 19.31369 0 0 0 13.65684-5.65685l12.6863-12.6863a19.31369 19.31369 0 0 1 13.65686-5.65685z" fill="#b1712c"/><path d="m304 40a24 24 0 0 1 24 24v32l-18.34314-18.34315a19.3137 19.3137 0 0 0 -13.65686-5.65685v-24a8 8 0 0 1 8-8z" fill="#91591c"/><path d="m328 96v80.00007a71.99993 71.99993 0 0 1 -71.99993 71.99993h-.00014a71.99993 71.99993 0 0 1 -71.99993-71.99993v-80.00007h72a19.31369 19.31369 0 0 0 13.65684-5.65685l12.6863-12.6863a19.31369 19.31369 0 0 1 13.65686-5.65685 19.31369 19.31369 0 0 1 13.65684 5.65685z" fill="#ffceb6"/><path d="m208 120h32v16h-32z" fill="#b1712c"/><circle cx="224" cy="152" fill="#91591c" r="8"/><path d="m272 120h32v16h-32z" fill="#b1712c"/><circle cx="288" cy="152" fill="#91591c" r="8"/><path d="m248 208h-8v-16h8a8.00917 8.00917 0 0 0 8-8v-16h16v16a24.0275 24.0275 0 0 1 -24 24z" fill="#c78869"/></svg>